<mxfile host="www.draw.io" modified="2019-12-09T06:25:11.540Z" agent="Mozilla/5.0 (Windows NT 10.0; Win64; x64) AppleWebKit/537.36 (KHTML, like Gecko) Chrome/78.0.3904.108 Safari/537.36" etag="FYbJ8ZEJ-yCrB24Pq5oH" version="12.3.8" type="github" pages="1">
  <diagram id="0Uc26WLwqxbnJnagjtuH" name="Page-1">
    <mxGraphModel dx="1038" dy="548" grid="1" gridSize="10" guides="1" tooltips="1" connect="1" arrows="1" fold="1" page="1" pageScale="1" pageWidth="850" pageHeight="1100" math="0" shadow="0">
      <root>
        <mxCell id="0"/>
        <mxCell id="1" parent="0"/>
        <mxCell id="OwbSnveVxBM_rIXtdpIi-17" value="Coach (Instructor)" style="shape=umlLifeline;participant=umlActor;perimeter=lifelinePerimeter;whiteSpace=wrap;html=1;container=1;collapsible=0;recursiveResize=0;verticalAlign=top;spacingTop=36;labelBackgroundColor=#ffffff;outlineConnect=0;" parent="1" vertex="1">
          <mxGeometry x="110" y="70" width="20" height="470" as="geometry"/>
        </mxCell>
        <mxCell id="OwbSnveVxBM_rIXtdpIi-18" value="" style="html=1;points=[];perimeter=orthogonalPerimeter;" parent="OwbSnveVxBM_rIXtdpIi-17" vertex="1">
          <mxGeometry x="5" y="90" width="10" height="140" as="geometry"/>
        </mxCell>
        <mxCell id="OwbSnveVxBM_rIXtdpIi-19" value="" style="html=1;points=[];perimeter=orthogonalPerimeter;" parent="OwbSnveVxBM_rIXtdpIi-17" vertex="1">
          <mxGeometry x="5" y="270" width="10" height="150" as="geometry"/>
        </mxCell>
        <mxCell id="OwbSnveVxBM_rIXtdpIi-20" value="&amp;lt;&amp;lt; System(Panel API) &amp;gt;&amp;gt;" style="shape=umlLifeline;perimeter=lifelinePerimeter;whiteSpace=wrap;html=1;container=1;collapsible=0;recursiveResize=0;outlineConnect=0;" parent="1" vertex="1">
          <mxGeometry x="250" y="70" width="150" height="470" as="geometry"/>
        </mxCell>
        <mxCell id="OwbSnveVxBM_rIXtdpIi-21" value="[verified Coach]Click On Own Athletes" style="html=1;verticalAlign=bottom;endArrow=block;" parent="OwbSnveVxBM_rIXtdpIi-20" source="OwbSnveVxBM_rIXtdpIi-17" edge="1">
          <mxGeometry width="80" relative="1" as="geometry">
            <mxPoint x="-5" y="89.5" as="sourcePoint"/>
            <mxPoint x="75" y="89.5" as="targetPoint"/>
          </mxGeometry>
        </mxCell>
        <mxCell id="OwbSnveVxBM_rIXtdpIi-22" value="" style="html=1;points=[];perimeter=orthogonalPerimeter;" parent="OwbSnveVxBM_rIXtdpIi-20" vertex="1">
          <mxGeometry x="70" y="90" width="10" height="140" as="geometry"/>
        </mxCell>
        <mxCell id="OwbSnveVxBM_rIXtdpIi-23" value="[verified Coach]getOwnAthlets()" style="html=1;verticalAlign=bottom;endArrow=block;" parent="OwbSnveVxBM_rIXtdpIi-20" target="OwbSnveVxBM_rIXtdpIi-26" edge="1">
          <mxGeometry width="80" relative="1" as="geometry">
            <mxPoint x="80" y="110" as="sourcePoint"/>
            <mxPoint x="160" y="110" as="targetPoint"/>
          </mxGeometry>
        </mxCell>
        <mxCell id="OwbSnveVxBM_rIXtdpIi-24" value="" style="html=1;points=[];perimeter=orthogonalPerimeter;" parent="OwbSnveVxBM_rIXtdpIi-20" vertex="1">
          <mxGeometry x="70" y="270" width="10" height="150" as="geometry"/>
        </mxCell>
        <mxCell id="OwbSnveVxBM_rIXtdpIi-25" value="[verified Coach]&lt;span style=&quot;font-size: 12px ; text-align: left ; white-space: normal ; background-color: rgb(248 , 249 , 250)&quot;&gt;getAthletesProgram(AthleteID)&lt;/span&gt;" style="html=1;verticalAlign=bottom;endArrow=block;entryX=0.5;entryY=-0.002;entryDx=0;entryDy=0;entryPerimeter=0;" parent="OwbSnveVxBM_rIXtdpIi-20" target="OwbSnveVxBM_rIXtdpIi-28" edge="1">
          <mxGeometry x="0.0001" y="10" width="80" relative="1" as="geometry">
            <mxPoint x="80" y="290" as="sourcePoint"/>
            <mxPoint x="160" y="290" as="targetPoint"/>
            <mxPoint as="offset"/>
          </mxGeometry>
        </mxCell>
        <mxCell id="OwbSnveVxBM_rIXtdpIi-26" value=":Coach (Instructor)" style="shape=umlLifeline;perimeter=lifelinePerimeter;whiteSpace=wrap;html=1;container=1;collapsible=0;recursiveResize=0;outlineConnect=0;" parent="1" vertex="1">
          <mxGeometry x="500" y="70" width="100" height="470" as="geometry"/>
        </mxCell>
        <mxCell id="OwbSnveVxBM_rIXtdpIi-27" value="" style="html=1;points=[];perimeter=orthogonalPerimeter;" parent="OwbSnveVxBM_rIXtdpIi-26" vertex="1">
          <mxGeometry x="45" y="110" width="10" height="100" as="geometry"/>
        </mxCell>
        <mxCell id="OwbSnveVxBM_rIXtdpIi-28" value="" style="html=1;points=[];perimeter=orthogonalPerimeter;" parent="OwbSnveVxBM_rIXtdpIi-26" vertex="1">
          <mxGeometry x="45" y="290" width="10" height="110" as="geometry"/>
        </mxCell>
        <mxCell id="OwbSnveVxBM_rIXtdpIi-29" value="Return Athletes List" style="html=1;verticalAlign=bottom;endArrow=open;dashed=1;endSize=8;entryX=1.24;entryY=0.821;entryDx=0;entryDy=0;entryPerimeter=0;" parent="1" source="OwbSnveVxBM_rIXtdpIi-27" target="OwbSnveVxBM_rIXtdpIi-22" edge="1">
          <mxGeometry x="0.2625" y="-5" relative="1" as="geometry">
            <mxPoint x="530" y="280" as="sourcePoint"/>
            <mxPoint x="350" y="275" as="targetPoint"/>
            <mxPoint as="offset"/>
          </mxGeometry>
        </mxCell>
        <mxCell id="OwbSnveVxBM_rIXtdpIi-30" value="Click On a Specific Athlete Program" style="html=1;verticalAlign=bottom;endArrow=block;exitX=1.02;exitY=0.012;exitDx=0;exitDy=0;exitPerimeter=0;entryX=-0.12;entryY=0.02;entryDx=0;entryDy=0;entryPerimeter=0;" parent="1" source="OwbSnveVxBM_rIXtdpIi-19" target="OwbSnveVxBM_rIXtdpIi-24" edge="1">
          <mxGeometry width="80" relative="1" as="geometry">
            <mxPoint x="160" y="350" as="sourcePoint"/>
            <mxPoint x="240" y="350" as="targetPoint"/>
          </mxGeometry>
        </mxCell>
        <mxCell id="OwbSnveVxBM_rIXtdpIi-31" value="Return Athlete Program Data List" style="html=1;verticalAlign=bottom;endArrow=open;dashed=1;endSize=8;entryX=1.32;entryY=0.868;entryDx=0;entryDy=0;entryPerimeter=0;" parent="1" source="OwbSnveVxBM_rIXtdpIi-28" target="OwbSnveVxBM_rIXtdpIi-24" edge="1">
          <mxGeometry x="0.1671" y="-8" relative="1" as="geometry">
            <mxPoint x="550" y="459.96000000000004" as="sourcePoint"/>
            <mxPoint x="330" y="488" as="targetPoint"/>
            <mxPoint as="offset"/>
            <Array as="points">
              <mxPoint x="430" y="470"/>
              <mxPoint x="380" y="470"/>
            </Array>
          </mxGeometry>
        </mxCell>
        <mxCell id="OwbSnveVxBM_rIXtdpIi-32" value="Return Athlete Program List Information" style="html=1;verticalAlign=bottom;endArrow=open;dashed=1;endSize=8;entryX=1.08;entryY=0.985;entryDx=0;entryDy=0;entryPerimeter=0;" parent="1" edge="1">
          <mxGeometry x="-0.0289" y="20" relative="1" as="geometry">
            <mxPoint x="334" y="490.25" as="sourcePoint"/>
            <mxPoint x="119.79999999999995" y="490.25" as="targetPoint"/>
            <mxPoint as="offset"/>
          </mxGeometry>
        </mxCell>
        <mxCell id="OwbSnveVxBM_rIXtdpIi-33" value="Return Athletes List Info" style="html=1;verticalAlign=bottom;endArrow=block;exitX=0;exitY=1;exitDx=0;exitDy=0;exitPerimeter=0;entryX=0.5;entryY=1;entryDx=0;entryDy=0;entryPerimeter=0;" parent="1" source="OwbSnveVxBM_rIXtdpIi-22" target="OwbSnveVxBM_rIXtdpIi-18" edge="1">
          <mxGeometry width="80" relative="1" as="geometry">
            <mxPoint x="160" y="270" as="sourcePoint"/>
            <mxPoint x="130" y="300" as="targetPoint"/>
          </mxGeometry>
        </mxCell>
      </root>
    </mxGraphModel>
  </diagram>
</mxfile>
